<svg xmlns="http://www.w3.org/2000/svg" version="1.1" width="100%" height="100%" viewBox="0 0 495.63157894736844 129" preserveAspectRatio="xMinYMax meet" data-hook="svg-icon-5"><path d="M70.9 128.6c-8.3 0-15.5-7.1-15.5-15.5s7.1-15.5 15.5-15.5 15.5 7.1 15.5 15.5-7.1 15.5-15.5 15.5zm0-20.8c-3 0-5.4 2.4-5.4 5.4s2.4 5.4 5.4 5.4 5.4-2.4 5.4-5.4-2.4-5.4-5.4-5.4zM115.3 128.7c-8.3 0-15.5-7.1-15.5-15.5s7.1-15.5 15.5-15.5 15.5 7.1 15.5 15.5-7.1 15.5-15.5 15.5zm0-20.8c-3 0-5.4 2.4-5.4 5.4s2.4 5.4 5.4 5.4 5.4-2.4 5.4-5.4-2.4-5.4-5.4-5.4z"/><path d="M135.1 88.1L51.2 88.1 22 10.1 0 10.1 0 0 29.1 0 58.6 78.1 127.7 78.1 145.8 29.1 36.9 29.1 33.3 19 160.7 19z"/><text x="184" y="95" data-hook="free-text">Cart</text><g data-hook="movable" transform="translate(180.63157894736844)"><text x="212" y="95" text-anchor="start" class="bGBBgJ jDuYHa" data-hook="items-count">0</text></g></svg>